<svg xmlns="http://www.w3.org/2000/svg" viewBox="0 0 240 240" role="img" aria-label="Synthetic illustrated portrait 09">
<title>Synthetic portrait 09 — illustration for layout testing, not a real person</title>
<rect width="240" height="240" fill="#e9e4d8"/>
<circle cx="120" cy="104" r="84" fill="#ffffff" opacity=".35"/>

<path d="M34 240c4-44 40-66 86-66s82 22 86 66z" fill="#d9d4c7"/>
<path d="M98 176c6 14 38 14 44 0" fill="none" stroke="#b2aea3" stroke-width="4" stroke-linecap="round"/>
<rect x="106" y="140" width="28" height="40" rx="12" fill="#794d33"/>
<ellipse cx="82" cy="112" rx="7" ry="10" fill="#794d33"/>
<ellipse cx="158" cy="112" rx="7" ry="10" fill="#794d33"/>
<ellipse cx="120" cy="108" rx="38" ry="46" fill="#8a573a"/>
<path d="M84 116c2 34 18 46 36 46s34-12 36-46c-6 18-18 28-36 28s-30-10-36-28z" fill="#1f1a17"/>
<path d="M83 102c0-30 18-44 38-44s38 14 38 44c-8-12-22-20-38-20s-30 8-38 20z" fill="#1f1a17" opacity=".9"/>
<path d="M100 100q6-4 12 0M128 100q6-4 12 0" fill="none" stroke="#1f1a17" stroke-width="3" stroke-linecap="round"/>
<ellipse cx="106" cy="112" rx="3.2" ry="3.8" fill="#2a2320"/>
<ellipse cx="134" cy="112" rx="3.2" ry="3.8" fill="#2a2320"/>


<path d="M120 116q-4 11 1 13" fill="none" stroke="#6c442d" stroke-width="2.4" stroke-linecap="round"/>
<path d="M110 137q10 8 20 0" fill="none" stroke="#f3e3d8" stroke-width="3" stroke-linecap="round"/>
</svg>
