<svg xmlns="http://www.w3.org/2000/svg" viewBox="0 0 240 240" role="img" aria-label="Synthetic illustrated portrait 16">
<title>Synthetic portrait 16 — illustration for layout testing, not a real person</title>
<rect width="240" height="240" fill="#e4e9dc"/>
<circle cx="120" cy="104" r="84" fill="#ffffff" opacity=".35"/>
<circle cx="120" cy="50" r="18" fill="#1f1a17"/>
<path d="M34 240c4-44 40-66 86-66s82 22 86 66z" fill="#b86b52"/>
<path d="M98 176c6 14 38 14 44 0" fill="none" stroke="#975843" stroke-width="4" stroke-linecap="round"/>
<rect x="106" y="140" width="28" height="40" rx="12" fill="#5f3826"/>
<ellipse cx="82" cy="112" rx="7" ry="10" fill="#5f3826"/>
<ellipse cx="158" cy="112" rx="7" ry="10" fill="#5f3826"/>
<ellipse cx="120" cy="108" rx="38" ry="46" fill="#6c402b"/>

<path d="M82 104c0-34 18-46 40-46s40 12 38 46c-10-16-24-24-39-24s-30 8-39 24z" fill="#1f1a17"/>
<path d="M100 100q6-4 12 0M128 100q6-4 12 0" fill="none" stroke="#1f1a17" stroke-width="3" stroke-linecap="round"/>
<ellipse cx="106" cy="112" rx="3.2" ry="3.8" fill="#2a2320"/>
<ellipse cx="134" cy="112" rx="3.2" ry="3.8" fill="#2a2320"/>


<path d="M120 116q-4 11 1 13" fill="none" stroke="#543222" stroke-width="2.4" stroke-linecap="round"/>
<path d="M110 137q10 8 20 0" fill="none" stroke="#8a4b43" stroke-width="3" stroke-linecap="round"/>
</svg>
